<svg width="36" height="36" viewBox="0 0 36 36" fill="none" xmlns="http://www.w3.org/2000/svg">
<circle cx="18" cy="18" r="17" fill="#9E5019"/>
<path d="M20.4964 25.3637C20.1284 25.398 19.7589 25.3149 19.4409 25.1264C19.2086 24.8879 19.0972 24.5568 19.1382 24.2264C19.1468 23.9513 19.1796 23.6775 19.2364 23.4082C19.2913 23.0992 19.3622 22.7934 19.4491 22.4918L20.4145 19.17C20.5141 18.8421 20.5799 18.5049 20.6109 18.1636C20.6109 17.7954 20.66 17.5417 20.66 17.3945C20.6805 16.7383 20.4003 16.1086 19.8991 15.6845C19.2825 15.2112 18.5147 14.9785 17.7391 15.03C17.1833 15.0383 16.6317 15.1293 16.1027 15.3C15.5245 15.48 14.9163 15.6954 14.2782 15.9464L14 17.0264C14.1882 16.9609 14.4173 16.8873 14.6791 16.8054C14.9288 16.7315 15.1877 16.6929 15.4482 16.6909C15.8135 16.6513 16.1812 16.741 16.4872 16.9445C16.6951 17.1925 16.7926 17.5147 16.7572 17.8364C16.7563 18.1115 16.7262 18.3858 16.6672 18.6545C16.6099 18.9409 16.5363 19.2436 16.4463 19.5627L15.4727 22.9008C15.3942 23.2111 15.3314 23.5251 15.2845 23.8417C15.2463 24.1128 15.2272 24.3862 15.2272 24.6599C15.2232 25.3206 15.5254 25.946 16.0454 26.3535C16.6715 26.8342 17.4502 27.0725 18.2381 27.0244C18.7929 27.0358 19.3457 26.9557 19.8745 26.7871C20.3381 26.6289 20.9572 26.4026 21.7318 26.1081L21.9936 25.0771C21.7838 25.1642 21.5677 25.2353 21.3472 25.2898C21.0684 25.3535 20.7821 25.3783 20.4964 25.3637Z" fill="white"/>
<path d="M19.5879 9.61364C19.1836 9.2047 18.6508 8.98469 18.102 9.00002C17.5535 8.98638 17.0213 9.20617 16.6161 9.61364C15.8734 10.3189 15.7905 11.5536 16.431 12.3716C16.488 12.4445 16.5499 12.5126 16.6161 12.5755C17.4622 13.4089 18.7418 13.4089 19.5878 12.5755C20.3305 11.8633 20.4083 10.623 19.7616 9.8051C19.7079 9.73696 19.6498 9.67298 19.5879 9.61364Z" fill="white"/>
</svg>
