<svg width="28" height="28" viewBox="0 0 28 28" fill="none" xmlns="http://www.w3.org/2000/svg">
<path d="M20.4615 9.96155H28V6.46155C28 4.23473 26.1884 2.4231 23.9615 2.4231H4.03845C1.81163 2.4231 0 4.23473 0 6.46155L0 21.5385C0 23.7653 1.81163 25.5769 4.03845 25.5769H23.9615C26.1884 25.5769 28 23.7653 28 21.5385V18.0385H20.4615C18.2347 18.0385 16.4231 16.2268 16.4231 14C16.4231 11.7732 18.2347 9.96155 20.4615 9.96155Z" fill="#F1DFC7"/>
<path d="M20.4617 11.5769C19.1256 11.5769 18.0386 12.6639 18.0386 14C18.0386 15.3361 19.1255 16.4231 20.4617 16.4231H28.0001V11.577L20.4617 11.5769ZM21.5386 14.8077H20.4617C20.0156 14.8077 19.654 14.446 19.654 14C19.654 13.554 20.0156 13.1923 20.4617 13.1923H21.5386C21.9847 13.1923 22.3463 13.554 22.3463 14C22.3463 14.446 21.9847 14.8077 21.5386 14.8077Z" fill="#F1DFC7"/>
</svg>
