<svg width="120" height="120" viewBox="0 0 120 120" fill="none" xmlns="http://www.w3.org/2000/svg">
<path fill-rule="evenodd" clip-rule="evenodd" d="M25.0005 24.9999H95.0005V94.9999H25.0005V24.9999Z" fill="white"/>
<path fill-rule="evenodd" clip-rule="evenodd" d="M59.9998 7.49939C88.9899 7.49939 112.5 31.0097 112.5 59.9997C112.5 88.9897 88.9899 112.5 59.9998 112.5C31.0098 112.5 7.49951 88.9897 7.49951 59.9997C7.49951 31.0097 31.0098 7.49939 59.9998 7.49939ZM54.3753 64.5174V37.4962C54.3753 34.3984 56.9021 31.8716 59.9998 31.8716C63.0976 31.8716 65.6244 34.4219 65.6244 37.4962V64.5174C65.6244 67.5917 63.0975 70.142 59.9998 70.142C56.9021 70.142 54.3753 67.6151 54.3753 64.5174ZM59.9755 76.1745C63.4958 76.1745 66.3508 79.0295 66.3508 82.5493C66.3508 86.0696 63.4958 88.9246 59.9755 88.9246C56.4557 88.9246 53.6007 86.0696 53.6007 82.5493C53.6007 79.0295 56.4557 76.1745 59.9755 76.1745Z" fill="#F0B90B"/>
</svg>
